<svg width="500" height="521" version="1" xmlns="http://www.w3.org/2000/svg"><g fill="none" fill-rule="evenodd"><path d="M250 521a250 250 0 1 0 0-500 250 250 0 0 0 0 500z" fill="#6989E1"/><g transform="translate(24 1)"><path fill="#C8D2D6" d="M168 422h215v99H168z"/><path d="M311 520H168v-98h84c33 0 59 26 59 59v39z" fill="#E7ECED"/><ellipse fill="#5D7DDF" cx="253" cy="471" rx="22" ry="22"/><path d="M238 96a31 31 0 1 0-41-41l41 41z" fill="#FBCE9D"/><path d="M283 141a31 31 0 1 0-41-41l41 41z" fill="#FBCE9D"/><path d="M328 186a31 31 0 1 0-41-42l41 42z" fill="#FBCE9D"/><path d="M373 231a31 31 0 1 0-41-42l41 42zM190 296h-90c-17 0-31-14-31-31 0-18 14-32 31-32h90c17 0 31 14 31 32 0 17-14 31-31 31z" fill="#FBCE9D"/><path d="M375 283L275 383c-8 8-21 8-29 0l-87-87h-59c-5 3-19-7-14-2l97 97 3 1v30h179v-41a67 67 0 0 0 10-98z" fill="#F7B563"/><path d="M168 26L29 165l68 69 3-1h90c17 0 31 14 31 32 0 17-14 31-31 31h-31l57 57 140-140L168 26z" fill="#424A60"/><g fill="#E7ECED"><path d="M168 26L148 6c-8-8-21-8-29 0L9 116c-8 9-8 22 0 30l20 19L168 26zM386 243l-30-30-140 140 30 30c8 8 21 8 29 0l111-111c8-8 8-21 0-29z"/></g><ellipse fill="#D75A4A" cx="307" cy="301" rx="18" ry="18"/><path d="M78 99a9 9 0 0 1-6-16l17-18a9 9 0 1 1 13 13L84 96l-6 3z" fill="#424A60"/></g></g></svg>