
<svg width="500px" height="521px" viewBox="0 0 500 521" version="1.1" xmlns="http://www.w3.org/2000/svg" xmlns:xlink="http://www.w3.org/1999/xlink">
    <g id="Page-1" stroke="none" stroke-width="1" fill="none" fill-rule="evenodd">
        <g id="landing" transform="translate(-776.000000, -188.000000)">
            <g id="Group-4" transform="translate(776.000000, 188.000000)">
                <path d="M250,521 C388.071187,521 500,409.082493 500,271.025253 C500,132.968012 388.071187,21.0505051 250,21.0505051 C116.19599,21.0505051 6.94343132,126.157148 0.318196722,258.302449 C0.106909706,262.516728 0,266.758506 0,271.025253 C0,409.082493 111.928813,521 250,521 Z" id="Oval" fill="#6989E1"></path>
                <g id="smartphone" transform="translate(23.684211, 0.717631)">
                    <rect id="Rectangle" fill="#C8D2D6" x="167.556818" y="421.608127" width="215.311005" height="98.6742424"></rect>
                    <path d="M311.097488,520.282369 L167.556818,520.282369 L167.556818,421.608127 L252.120215,421.608127 C284.694976,421.608127 311.097488,448.007972 311.097488,480.579442 L311.097488,520.282369 Z" id="Path" fill="#E7ECED"></path>
                    <ellipse id="Oval" fill="#5D7DDF" cx="252.784091" cy="470.945248" rx="22.4282297" ry="22.4259642"></ellipse>
                    <path d="M238.465909,96.0010675 C249.527512,91.1391185 257.269737,80.1234848 257.269737,67.2778926 C257.269737,49.9381371 243.211722,35.8815427 225.870215,35.8815427 C213.014354,35.8815427 201.997608,43.6229855 197.144139,54.6834711 L238.465909,96.0010675 Z" id="Path" fill="#FBCE9D"></path>
                    <path d="M283.322368,140.852996 C294.383971,135.991047 302.126196,124.975413 302.126196,112.129821 C302.126196,94.7900654 288.068182,80.7334711 270.726675,80.7334711 C257.870813,80.7334711 246.854067,88.4749139 242.000598,99.5353994 L283.322368,140.852996 Z" id="Path" fill="#FBCE9D"></path>
                    <path d="M328.178828,185.704924 C339.240431,180.842975 346.982656,169.827342 346.982656,156.981749 C346.982656,139.641994 332.924641,125.585399 315.583134,125.585399 C302.727273,125.585399 291.710526,133.326842 286.857057,144.387328 L328.178828,185.704924 Z" id="Path" fill="#FBCE9D"></path>
                    <path d="M373.035287,230.556853 C384.09689,225.694904 391.839115,214.67927 391.839115,201.833678 C391.839115,184.493922 377.7811,170.437328 360.439593,170.437328 C347.583732,170.437328 336.566986,178.178771 331.713517,189.239256 L373.035287,230.556853 Z" id="Path" fill="#FBCE9D"></path>
                    <path d="M189.985048,296.022727 L100.272129,296.022727 C83.0023923,296.022727 68.8726077,281.89437 68.8726077,264.626377 C68.8726077,247.358385 83.0023923,233.230028 100.272129,233.230028 L189.985048,233.230028 C207.254785,233.230028 221.384569,247.358385 221.384569,264.626377 C221.384569,281.89437 207.254785,296.022727 189.985048,296.022727 Z" id="Path" fill="#FBCE9D"></path>
                    <path d="M375.116627,283.132283 L275.355861,382.882972 C267.317584,390.920437 254.282297,390.920437 246.25299,382.882972 L159.392943,296.022727 L100.2811,296.022727 C95.0956938,298.561346 80.9479665,289.402583 86.3755981,294.058213 L183.373206,390.669267 C184.037081,391.333075 184.808612,391.808506 185.508373,392.409521 L185.508373,421.608127 L364.934211,421.608127 L364.934211,381.151687 C381.25299,368.871229 391.848086,349.414463 391.848086,327.419077 C391.839115,310.438137 385.496411,294.973192 375.116627,283.132283 Z" id="Path" fill="#F7B563"></path>
                    <path d="M168.382177,25.9154442 L28.8157895,165.467734 L96.9258373,233.570902 C98.0472488,233.454287 99.1327751,233.230028 100.272129,233.230028 L189.985048,233.230028 C207.254785,233.230028 221.384569,247.358385 221.384569,264.626377 C221.384569,281.89437 207.254785,296.022727 189.985048,296.022727 L159.383971,296.022727 L216.396531,353.029528 L355.953947,213.477238 L168.382177,25.9154442 Z" id="Path" fill="#424A60"></path>
                    <g id="Group" fill="#E7ECED">
                        <path d="M168.382177,25.9154442 L148.492823,6.02809917 C140.454545,-2.00936639 127.419258,-2.00936639 119.389952,6.02809917 L8.92643541,116.471488 C0.888157895,124.508953 0.888157895,137.542924 8.92643541,145.580389 L28.8157895,165.467734 L168.382177,25.9154442 Z" id="Path"></path>
                        <path d="M385.810407,243.330682 L355.953947,213.477238 L216.396531,353.029528 L246.244019,382.874001 C254.282297,390.911467 267.317584,390.911467 275.34689,382.874001 L385.801435,272.430613 C393.848684,264.402118 393.848684,251.368147 385.810407,243.330682 Z" id="Path"></path>
                    </g>
                    <ellipse id="Oval" fill="#D75A4A" cx="306.611842" cy="300.50792" rx="17.9425837" ry="17.9407713"></ellipse>
                    <path d="M77.8438995,98.6742424 C75.5472488,98.6742424 73.2505981,97.7951446 71.5011962,96.0459194 C67.9934211,92.5384986 67.9934211,86.8692149 71.5011962,83.3617941 L89.4437799,65.4210227 C92.951555,61.9136019 98.6214115,61.9136019 102.129187,65.4210227 C105.636962,68.9284435 105.636962,74.5977273 102.129187,78.1051481 L84.1866029,96.0459194 C82.437201,97.7951446 80.1405502,98.6742424 77.8438995,98.6742424 Z" id="Path" fill="#424A60"></path>
                </g>
            </g>
        </g>
    </g>
</svg>
