<svg width="359" height="367" version="1" xmlns="http://www.w3.org/2000/svg"><g fill="none" fill-rule="evenodd"><ellipse fill="#FFF" cx="184" cy="192" rx="175" ry="175"/><circle fill="#90C5FF" cx="232" cy="122" r="105"/><path fill="#59595A" d="M42 345L9 312l96-96 33 33z"/><path fill="#EBBA16" d="M138 249l-33-33 9-9 33 33zM33 354L0 321l9-9 33 33z"/><path d="M315 39a117 117 0 0 0-166 0 117 117 0 0 0-8 157l-19 19 17 17 19-19a116 116 0 0 0 157-8 117 117 0 0 0 0-166zm-17 149a92 92 0 0 1-132 0 92 92 0 0 1 0-132 92 92 0 0 1 132 0 92 92 0 0 1 0 132z" fill="#59595A" fill-rule="nonzero"/></g></svg>