<svg width="350" height="350" version="1" xmlns="http://www.w3.org/2000/svg" xmlns:xlink="http://www.w3.org/1999/xlink"><defs><path id="a" d="M0 0h250v300H0z"/></defs><g fill="none" fill-rule="evenodd"><ellipse fill="#FFF" cx="175" cy="175" rx="175" ry="175"/><path d="M230 135c10-6 16-17 16-29V50H96v56c0 12 6 23 16 29l46 35a7 7 0 0 1 0 10l-46 35c-10 6-16 17-16 29v56h150v-56c0-12-6-23-16-29l-46-35a7 7 0 0 1 0-10l46-35z" fill="#EBEBEB"/><path fill="#9E6C53" d="M71 320h200v-20H71z"/><g transform="translate(46 25)"><mask id="b" fill="#fff"><use xlink:href="#a"/></mask><path fill="#9E6C53" mask="url(#b)" d="M25 25h200V5H25z"/><path d="M245 290H5a5 5 0 0 0 0 10h240a5 5 0 0 0 0-10zM5 10h240a5 5 0 0 0 0-10H5a5 5 0 0 0 0 10z" fill="#8A5336" mask="url(#b)"/></g><path d="M222 123c6-4 9-10 9-17 0-6-4-12-11-14l-75-19c-17-4-34 9-34 27v6c0 7 3 13 9 17l46 34v79c0 18-19 30-35 23-9-4-20 2-20 11v30h120v-56c0-10-9-17-19-15l-10 2c-14 2-26-9-26-22v-52l46-34z" fill="#EBBA16"/></g></svg>