
<svg width="350px" height="350px" viewBox="0 0 350 350" version="1.1" xmlns="http://www.w3.org/2000/svg" xmlns:xlink="http://www.w3.org/1999/xlink">
    <defs>
        <polygon id="path-1" points="0.375 0 250 0 250 299.625 0.375 299.625"></polygon>
    </defs>
    <g id="Page-1" stroke="none" stroke-width="1" fill="none" fill-rule="evenodd">
        <g id="landing" transform="translate(-851.000000, -2291.000000)">
            <g id="Group-3" transform="translate(851.000000, 2291.000000)">
                <ellipse id="Oval" fill="#FFFFFF" cx="175" cy="174.982323" rx="175" ry="174.982323"></ellipse>
                <g id="hourglass" transform="translate(46.000000, 25.000000)">
                    <path d="M184.275,110.475 C194.09375,103.93125 200,92.91875 200,81.10625 L200,25 L50,25 L50,81.10625 C50,92.91875 55.90625,103.93125 65.725,110.475 L112.30625,144.7 C113.9875,145.925 114.9875,147.9 114.9875,150 C114.9875,152.1 113.9875,154.075 112.30625,155.3 L65.725,189.525 C55.90625,196.06875 50,207.08125 50,218.89375 L50,275 L200,275 L200,218.89375 C200,207.08125 194.09375,196.06875 184.275,189.525 L137.69375,155.3 C136.0125,154.075 135.0125,152.1 135.0125,150 C135.0125,147.9 136.0125,145.925 137.69375,144.7 L184.275,110.475 Z" id="Fill-1" fill="#EBEBEB"></path>
                    <polygon id="Fill-2" fill="#9E6C53" points="25 294.99375 225 294.99375 225 275 25 275"></polygon>
                    <g id="Group-7">
                        <mask id="mask-2" fill="white">
                            <use xlink:href="#path-1"></use>
                        </mask>
                        <g id="Clip-4"></g>
                        <polygon id="Fill-3" fill="#9E6C53" mask="url(#mask-2)" points="25 25 225 25 225 5.00625 25 5.00625"></polygon>
                        <path d="M244.99375,289.9875 L5.00625,289.9875 C2.24375,289.9875 0,292.2375 0,294.99375 C0,297.75625 2.24375,300 5.00625,300 L244.99375,300 C247.75625,300 250,297.75625 250,294.99375 C250,292.2375 247.75625,289.9875 244.99375,289.9875 Z" id="Fill-5" fill="#8A5336" mask="url(#mask-2)"></path>
                        <path d="M5.00625,10.0125 L244.99375,10.0125 C247.75625,10.0125 250,7.7625 250,5.00625 C250,2.24375 247.75625,0 244.99375,0 L5.00625,0 C2.24375,0 0,2.24375 0,5.00625 C0,7.7625 2.24375,10.0125 5.00625,10.0125 Z" id="Fill-6" fill="#8A5336" mask="url(#mask-2)"></path>
                    </g>
                    <path d="M175.95,98 C181.61875,94.2125 185.0125,87.9125 185.0125,81.10625 C185.0125,74.5875 180.56875,68.89375 174.21875,67.3125 L98.95,48.4875 C81.7125,44.1625 64.9875,57.225 64.9875,75 L64.9875,81.10625 C64.9875,87.9125 68.38125,94.2125 74.05,98 L119.99375,131.7375 L119.99375,211.10625 C119.99375,229.275 101.175,241.28125 84.71875,233.66875 C75.83125,229.5625 65.0875,235.64375 65.0125,245.4125 L65.0125,275 L185.0125,275 L185.0125,218.675 C184.9125,209.03125 175.5625,202.075 166.0375,203.7375 L155.8125,205.51875 C142.33125,207.8625 130.00625,197.4875 130.00625,183.8125 L130.00625,131.7375 L175.95,98 Z" id="Fill-8" fill="#EBBA16"></path>
                </g>
            </g>
        </g>
    </g>
</svg>
