
<svg width="350px" height="350px" viewBox="0 0 350 350" version="1.1" xmlns="http://www.w3.org/2000/svg" xmlns:xlink="http://www.w3.org/1999/xlink">
    <g id="Page-1" stroke="none" stroke-width="1" fill="none" fill-rule="evenodd">
        <g id="landing" transform="translate(-249.000000, -1922.000000)">
            <g id="Group-2" transform="translate(249.000000, 1922.000000)">
                <ellipse id="Oval" fill="#FFFFFF" cx="175" cy="174.982323" rx="175" ry="174.982323"></ellipse>
                <g id="notes" transform="translate(25.000000, 12.000000)">
                    <g id="Group" transform="translate(0.000000, 40.350877)" fill="#C4BFAD">
                        <polygon id="Path" points="56.1350877 12.5725146 108.778363 7.96900585 19.5690058 0.162573099 0 223.869006 75.1959064 230.450292"></polygon>
                        <polygon id="Path" points="108.777193 233.38655 223.704094 243.443275 225.479532 223.174269"></polygon>
                    </g>
                    <path d="M279.842105,33.3520468 L238.688304,36.9502924 C234.769006,46.8578947 225.161404,53.8830409 213.869006,53.8830409 C204.239766,53.8830409 195.87193,48.7502924 191.161404,41.1099415 L56.1362573,52.9263158 L75.7052632,276.632164 L299.416374,257.057895 L279.842105,33.3520468 Z" id="Path" fill="#ECE8D8"></path>
                    <g id="Group" transform="translate(97.660819, 106.432749)" fill="#C9B693">
                        <path d="M133.180117,12.248538 C133.335088,12.248538 133.495322,12.2432749 133.650877,12.2269006 L149.626901,10.8263158 C152.573099,10.5748538 154.74386,7.97660819 154.487135,5.03567251 C154.230409,2.1005848 151.621053,-0.107602339 148.696491,0.175438596 L132.720468,1.57602339 C129.774269,1.83274854 127.603509,4.42573099 127.860234,7.36666667 C128.106433,10.1473684 130.437427,12.248538 133.180117,12.248538" id="Path"></path>
                        <path d="M74.5912281,17.3760234 C74.7461988,17.3760234 74.9064327,17.3707602 75.0619883,17.354386 L112.344444,14.0929825 C115.28538,13.8362573 117.461404,11.2432749 117.204678,8.30233918 C116.94269,5.36140351 114.338596,3.18011696 111.414035,3.44210526 L74.1315789,6.70350877 C71.1853801,6.96023392 69.0146199,9.55321637 69.271345,12.494152 C69.5169591,15.2748538 71.848538,17.3760234 74.5912281,17.3760234" id="Path"></path>
                        <path d="M5.81520468,23.4122807 L53.7538012,19.2204678 C56.7,18.9637427 58.8707602,16.3707602 58.6140351,13.4298246 C58.3573099,10.4888889 55.7052632,8.30233918 52.8233918,8.56959064 L4.88479532,12.7614035 C1.93859649,13.0181287 -0.232163743,15.6111111 0.0245614035,18.5520468 C0.270760234,21.3321637 2.60175439,23.4333333 5.34444444,23.4333333 C5.4994152,23.4333333 5.65964912,23.4280702 5.81520468,23.4122807" id="Path"></path>
                        <path d="M114.211111,35.4005848 C111.264912,35.6573099 109.094152,38.2502924 109.350877,41.1912281 C109.597076,43.9766082 111.92807,46.0725146 114.67076,46.0725146 C114.825731,46.0725146 114.985965,46.0672515 115.14152,46.0508772 L152.423977,42.7894737 C155.370175,42.5327485 157.540936,39.9397661 157.289474,36.9988304 C157.027485,34.0578947 154.423392,31.871345 151.49883,32.1385965 L114.211111,35.4005848 Z" id="Path"></path>
                        <path d="M83.1853801,48.845614 C86.1315789,48.5888889 88.3023392,45.9959064 88.045614,43.0549708 C87.7836257,40.1140351 85.1637427,37.905848 82.2549708,38.1947368 L44.9725146,41.4561404 C42.0263158,41.7128655 39.8555556,44.305848 40.1070175,47.2467836 C40.3532164,50.0321637 42.6894737,52.1280702 45.4269006,52.1280702 C45.5871345,52.1280702 45.7421053,52.122807 45.8976608,52.1064327 L83.1853801,48.845614 Z" id="Path"></path>
                        <path d="M8.61403509,55.3725146 L24.5900585,53.9719298 C27.5362573,53.7152047 29.7070175,51.1222222 29.4502924,48.1812865 C29.1988304,45.2403509 26.6274854,43.0754386 23.6596491,43.3210526 L7.68362573,44.7216374 C4.7374269,44.9783626 2.56666667,47.571345 2.82339181,50.5122807 C3.06959064,53.2923977 5.4005848,55.3935673 8.14327485,55.3935673 C8.29824561,55.3935673 8.45906433,55.3883041 8.61403509,55.3725146" id="Path"></path>
                        <path d="M143.633918,65.0263158 C140.692982,65.2830409 138.516959,67.8760234 138.778947,70.8222222 C139.025146,73.6023392 141.35614,75.6982456 144.09883,75.6982456 C144.253801,75.6982456 144.414035,75.6929825 144.574854,75.6766082 L155.225731,74.7409357 C158.166667,74.4894737 160.34269,71.8912281 160.080702,68.9450292 C159.818713,66.0152047 157.326901,63.8391813 154.284795,64.0900585 L143.633918,65.0263158 Z" id="Path"></path>
                        <path d="M69.0666667,71.548538 C66.1204678,71.8052632 63.9497076,74.3982456 64.2064327,77.3391813 C64.4467836,80.1245614 66.7836257,82.2204678 69.5263158,82.2204678 C69.6812865,82.2204678 69.8415205,82.2152047 69.997076,82.1988304 L123.266082,77.5421053 C126.212281,77.2853801 128.383041,74.6923977 128.126316,71.751462 C127.869591,68.8105263 125.254971,66.645614 122.335673,66.8912281 L69.0666667,71.548538 Z" id="Path"></path>
                        <path d="M37.1116959,74.3467836 L10.4795322,76.6777778 C7.53333333,76.9292398 5.3625731,79.5274854 5.61403509,82.4684211 C5.85438596,85.248538 8.19649123,87.3497076 10.9339181,87.3497076 C11.094152,87.3497076 11.2491228,87.3444444 11.4046784,87.3280702 L38.0421053,84.997076 C40.9883041,84.7403509 43.1590643,82.1473684 42.9023392,79.2064327 C42.6508772,76.2660819 40.0578947,74.0795322 37.1116959,74.3467836" id="Path"></path>
                        <path d="M157.088889,96.0520468 L103.825146,100.71462 C100.878947,100.971345 98.7081871,103.564327 98.9649123,106.505263 C99.2111111,109.290643 101.542105,111.38655 104.284795,111.38655 C104.439766,111.38655 104.6,111.381287 104.755556,111.364912 L158.019298,106.702339 C160.965497,106.445614 163.136257,103.852632 162.879532,100.911696 C162.617544,97.9719298 160.029825,95.7690058 157.088889,96.0520468" id="Path"></path>
                        <path d="M71.8654971,103.508187 L50.5643275,105.374269 C47.6181287,105.625731 45.4473684,108.223977 45.6988304,111.164912 C45.9450292,113.945029 48.2812865,116.046199 51.0239766,116.046199 C51.1789474,116.046199 51.3339181,116.040936 51.4888889,116.024561 L72.7953216,114.15848 C75.7415205,113.901754 77.9122807,111.308772 77.6555556,108.367836 C77.3988304,105.426901 74.8327485,103.251462 71.8654971,103.508187" id="Path"></path>
                        <path d="M29.2538012,107.236257 L13.2777778,108.636842 C10.3315789,108.893567 8.16081871,111.48655 8.41754386,114.427485 C8.65789474,117.207602 10.9947368,119.308772 13.7374269,119.308772 C13.8923977,119.308772 14.0473684,119.303509 14.2081871,119.287135 L30.1842105,117.88655 C33.1304094,117.629825 35.3011696,115.036842 35.0444444,112.095906 C34.7877193,109.15614 32.1356725,106.974269 29.2538012,107.236257" id="Path"></path>
                    </g>
                    <path d="M165.746199,80.6175439 C164.377193,80.6175439 163.008772,80.0935673 161.966082,79.0508772 C159.875439,76.9602339 159.875439,73.5812865 161.966082,71.4906433 L191.185965,42.2707602 C193.271345,40.1853801 196.655556,40.1853801 198.746199,42.2707602 C200.831579,44.3614035 200.831579,47.745614 198.746199,49.8309942 L169.526316,79.0508772 C168.483626,80.0935673 167.11462,80.6175439 165.746199,80.6175439" id="Path" fill="#B8BDC1"></path>
                    <path d="M240.6,27.1508772 C240.6,12.3888889 228.628655,0.41754386 213.866667,0.41754386 C199.104678,0.41754386 187.133333,12.3888889 187.133333,27.1508772 C187.133333,41.9128655 199.104678,53.8842105 213.866667,53.8842105 C228.628655,53.8842105 240.6,41.9128655 240.6,27.1508772" id="Path" fill="#E02B22"></path>
                </g>
            </g>
        </g>
    </g>
</svg>
