<svg width="350" height="350" version="1" xmlns="http://www.w3.org/2000/svg"><g fill="none" fill-rule="evenodd"><ellipse fill="#FFF" cx="175" cy="175" rx="175" ry="175"/><g fill="#C4BFAD"><path d="M81 65l53-5-89-7-20 223 75 7zM134 286l115 10 1-20z"/></g><path d="M305 45l-41 4a27 27 0 0 1-48 4L81 65l20 224 223-20-19-224z" fill="#ECE8D8"/><g fill="#C9B693"><path d="M256 131l16-2a5 5 0 1 0-1-10l-16 1a5 5 0 0 0 1 11M197 136h1l37-3a5 5 0 0 0-1-11l-37 3a5 5 0 0 0 0 11M128 142l48-4a5 5 0 1 0-1-11l-47 4a5 5 0 1 0 0 11M237 154a5 5 0 1 0 1 10l37-3a5 5 0 0 0-1-10l-37 3zM206 167a5 5 0 1 0-1-10l-37 3a5 5 0 0 0 1 11l37-4zM131 174l16-2a5 5 0 1 0-1-10l-16 1a5 5 0 1 0 1 11M266 183a5 5 0 1 0 1 11l11-1c3 0 5-3 5-6-1-3-3-5-6-4h-11zM192 190a5 5 0 1 0 1 11l53-5a5 5 0 1 0-1-11l-53 5zM160 193l-27 2a5 5 0 1 0 1 11l27-3a5 5 0 1 0-1-10M280 214l-54 5a5 5 0 1 0 1 11l54-5a5 5 0 1 0-1-11M195 222l-22 2a5 5 0 1 0 1 10l21-1a5 5 0 1 0 0-11M152 226l-16 1a5 5 0 1 0 1 11l16-2a5 5 0 1 0-1-10"/></g><path d="M191 93a5 5 0 0 1-4-10l29-29a5 5 0 0 1 8 8l-29 29-4 2" fill="#B8BDC1"/><path d="M266 39a27 27 0 1 0-54 0 27 27 0 0 0 54 0" fill="#E02B22"/></g></svg>