<svg width="450" height="436" version="1" xmlns="http://www.w3.org/2000/svg"><g fill="none" fill-rule="evenodd"><path d="M319 436H131c-15 0-26-12-26-26V26c0-14 11-25 26-25h188c15 0 26 11 26 25v384c0 14-11 26-26 26z" fill="#E7ECED"/><circle fill="#D75A4A" cx="225" cy="398" r="23"/><path d="M225 31h-30a7 7 0 1 1 0-15h30a7 7 0 1 1 0 15zM255 31h-8a7 7 0 1 1 0-15h8a7 7 0 1 1 0 15z" fill="#424A60"/><path d="M419 153a7 7 0 0 1-5-13c28-28 28-74 0-102a7 7 0 1 1 11-10c33 33 33 88 0 122l-6 3z" fill="#5F8AE4"/><path d="M388 138a7 7 0 0 1-6-13 49 49 0 0 0 0-70 7 7 0 1 1 11-10 64 64 0 0 1 0 90c-1 2-3 3-5 3zM31 153l-6-3a87 87 0 0 1 0-122 7 7 0 1 1 11 10 72 72 0 0 0 0 102 7 7 0 0 1-5 13z" fill="#5F8AE4"/><path d="M62 135c-2 0-4 0-5-2a64 64 0 0 1 0-90 7 7 0 1 1 11 10 49 49 0 0 0 0 70 7 7 0 0 1-6 12z" fill="#5F8AE4"/><path fill="#424A60" d="M105 46h240v315H105z"/></g></svg>