
<svg width="359px" height="367px" viewBox="0 0 359 367" version="1.1" xmlns="http://www.w3.org/2000/svg" xmlns:xlink="http://www.w3.org/1999/xlink">
    <g id="Page-1" stroke="none" stroke-width="1" fill="none" fill-rule="evenodd">
        <g id="landing" transform="translate(-222.000000, -2701.000000)">
            <g id="research" transform="translate(222.000000, 2701.000000)">
                <ellipse id="Oval" fill="#FFFFFF" cx="184" cy="191.982323" rx="175" ry="174.982323"></ellipse>
                <circle id="Oval" fill="#90C5FF" cx="232.036334" cy="122.110521" r="105.204989"></circle>
                <polygon id="Rectangle" fill="#59595A" transform="translate(73.497939, 280.649684) rotate(-135.000000) translate(-73.497939, -280.649684) " points="50.1195297 213.012263 96.8763482 213.012263 96.8763482 348.287105 50.1195297 348.287105"></polygon>
                <polygon id="Rectangle" fill="#EBBA16" transform="translate(125.837051, 228.310644) rotate(-135.000000) translate(-125.837051, -228.310644) " points="102.458642 221.930987 149.21546 221.930987 149.21546 234.690301 102.458642 234.690301"></polygon>
                <polygon id="Rectangle" fill="#EBBA16" transform="translate(21.158903, 332.988724) rotate(-135.000000) translate(-21.158903, -332.988724) " points="-2.21950632 326.609068 44.5373121 326.609068 44.5373121 339.368381 -2.21950632 339.368381"></polygon>
                <g id="Group" transform="translate(167.787419, 0.000000)" fill="#FFFFFF" opacity="0.2">
                    <polygon id="Path" points="23.5061822 303.334599 0.325704989 294.324946 114.59577 0 137.777766 8.99446855"></polygon>
                    <polygon id="Path" points="56.6832972 331.39154 33.4975054 322.376573 147.76757 28.0501085 170.938178 37.0324295"></polygon>
                </g>
                <path d="M314.994685,39.1521692 C292.836117,16.9928416 263.373861,4.78991323 232.036334,4.78991323 C200.698807,4.78991323 171.23731,16.9928416 149.077983,39.1521692 C126.919414,61.3107375 114.715727,90.7729935 114.715727,122.110521 C114.715727,149.333839 123.92961,175.138937 140.87538,195.973427 L121.698265,215.150542 L138.997072,232.449349 L158.174187,213.272234 C179.008677,230.217245 204.813015,239.431887 232.036334,239.431887 C263.373861,239.431887 292.835358,227.228959 314.994685,205.069631 C337.154013,182.910304 349.356941,153.448048 349.356941,122.110521 C349.356941,90.7729935 337.154013,61.3107375 314.994685,39.1521692 Z M297.860629,187.934816 C280.278633,205.516811 256.901518,215.199892 232.036334,215.200651 C207.17115,215.200651 183.794035,205.51757 166.212039,187.934816 C148.630043,170.35282 138.946963,146.975705 138.946204,122.110521 C138.946204,97.2453362 148.629284,73.8682213 166.212039,56.2862256 C183.794035,38.7042299 207.17115,29.0211497 232.036334,29.0203905 C256.901518,29.0203905 280.278633,38.7034707 297.860629,56.2862256 C315.442625,73.8689805 325.125705,97.2453362 325.126464,122.110521 C325.126464,146.975705 315.443384,170.35282 297.860629,187.934816 Z" id="Shape" fill="#59595A" fill-rule="nonzero"></path>
            </g>
        </g>
    </g>
</svg>
