
<svg width="450px" height="436px" viewBox="0 0 450 436" version="1.1" xmlns="http://www.w3.org/2000/svg" xmlns:xlink="http://www.w3.org/1999/xlink">
    <g id="Page-1" stroke="none" stroke-width="1" fill="none" fill-rule="evenodd">
        <g id="landing" transform="translate(-108.000000, -1056.000000)">
            <g id="smartphone-(1)" transform="translate(108.000000, 1056.000000)">
                <path d="M319.455,435.7425 L130.53,435.7425 C116.4225,435.7425 104.9925,424.305 104.9925,410.205 L104.9925,26.28 C104.9925,12.1725 116.43,0.7425 130.53,0.7425 L319.4475,0.7425 C333.555,0.7425 344.985,12.18 344.985,26.28 L344.985,410.1975 C344.9925,424.305 333.555,435.7425 319.455,435.7425 Z" id="Path" fill="#E7ECED"></path>
                <circle id="Oval" fill="#D75A4A" cx="224.9925" cy="398.2425" r="22.5"></circle>
                <path d="M224.9925,30.7425 L194.9925,30.7425 C190.845,30.7425 187.4925,27.39 187.4925,23.2425 C187.4925,19.095 190.845,15.7425 194.9925,15.7425 L224.9925,15.7425 C229.14,15.7425 232.4925,19.095 232.4925,23.2425 C232.4925,27.39 229.14,30.7425 224.9925,30.7425 Z" id="Path" fill="#424A60"></path>
                <path d="M254.9925,30.7425 L247.4925,30.7425 C243.345,30.7425 239.9925,27.39 239.9925,23.2425 C239.9925,19.095 243.345,15.7425 247.4925,15.7425 L254.9925,15.7425 C259.14,15.7425 262.4925,19.095 262.4925,23.2425 C262.4925,27.39 259.14,30.7425 254.9925,30.7425 Z" id="Path" fill="#424A60"></path>
                <path d="M419.28,152.5575 C417.36,152.5575 415.44,151.8225 413.9775,150.36 C411.045,147.4275 411.045,142.6875 413.9775,139.755 C441.9975,111.735 441.9975,66.1425 413.9775,38.115 C411.045,35.1825 411.045,30.4425 413.9775,27.51 C416.91,24.5775 421.65,24.5775 424.5825,27.51 C458.4525,61.38 458.4525,116.49 424.5825,150.36 C423.12,151.83 421.2,152.5575 419.28,152.5575 Z" id="Path" fill="#5F8AE4"></path>
                <path d="M387.6975,137.5575 C385.7775,137.5575 383.8575,136.8225 382.395,135.36 C379.4625,132.4275 379.4625,127.6875 382.395,124.755 C391.6725,115.485 396.78,103.125 396.78,89.97 C396.78,76.815 391.6725,64.4625 382.395,55.1775 C379.4625,52.245 379.4625,47.505 382.395,44.5725 C385.3275,41.64 390.0675,41.64 393,44.5725 C405.1125,56.6775 411.78,72.81 411.78,89.97 C411.78,107.13 405.1125,123.255 393,135.36 C391.5375,136.83 389.6175,137.5575 387.6975,137.5575 Z" id="Path" fill="#5F8AE4"></path>
                <path d="M30.705,152.5575 C28.785,152.5575 26.865,151.8225 25.4025,150.36 C-8.4675,116.49 -8.4675,61.38 25.4025,27.51 C28.335,24.5775 33.075,24.5775 36.0075,27.51 C38.94,30.4425 38.94,35.1825 36.0075,38.115 C7.9875,66.135 7.9875,111.7275 36.0075,139.755 C38.94,142.6875 38.94,147.4275 36.0075,150.36 C34.5375,151.83 32.625,152.5575 30.705,152.5575 Z" id="Path" fill="#5F8AE4"></path>
                <path d="M62.2875,135.495 C60.3675,135.495 58.4475,134.76 56.985,133.2975 C44.8725,121.1925 38.205,105.06 38.205,87.9 C38.205,70.74 44.8725,54.615 56.985,42.51 C59.9175,39.5775 64.6575,39.5775 67.59,42.51 C70.5225,45.4425 70.5225,50.1825 67.59,53.115 C58.3125,62.385 53.205,74.745 53.205,87.9 C53.205,101.055 58.3125,113.4075 67.59,122.6925 C70.5225,125.625 70.5225,130.365 67.59,133.2975 C66.12,134.76 64.2075,135.495 62.2875,135.495 Z" id="Path" fill="#5F8AE4"></path>
                <rect id="Rectangle" fill="#424A60" x="104.9925" y="45.7425" width="240" height="315"></rect>
            </g>
        </g>
    </g>
</svg>
